<?xml version="1.0" encoding="utf-8"?>
<!-- Generator: Adobe Illustrator 27.5.0, SVG Export Plug-In . SVG Version: 6.00 Build 0)  -->
<svg version="1.1" id="Layer_1" xmlns="http://www.w3.org/2000/svg" xmlns:xlink="http://www.w3.org/1999/xlink" x="0px" y="0px"
	 viewBox="0 0 6000 4000" style="enable-background:new 0 0 6000 4000;" xml:space="preserve">
<g>
	<g>
		<g>
			<g>
				<g>
					<rect style="fill:#000000;" width="6000" height="4000"/>
				</g>
			</g>
		</g>
	</g>
	<path style="fill:none;stroke:#ffffff;stroke-width:14;stroke-miterlimit:10;" d="M269.149,3076.618
		c0,0,384.699-23.608,348.751-3.756c-35.948,19.852-143.256,21.461-108.917,34.338s247.881-2.146,379.87-13.413
		s214.079-16.633,280.073,4.292c65.994,20.925,559.611,47.215,598.241,47.215c38.631,0,42.923-72.762,35.412-80.377
		c-7.511-7.615-735.059,9.554-746.863-123.507c-11.804-133.062,96.219-379.512,109.812-388.812c13.592-9.3,46.5,1.431,61.523-9.3
		c15.023-10.731,1.431-130.2,0-134.492c-1.431-4.292-227.135,21.104-249.312,31.834c-22.177,10.731-41.135,114.104-49.004,114.104
		c-7.869,0-60.092-30.046-61.523-40.777c-1.431-10.731-8.942-399.901,1.788-414.924c10.731-15.023,907.825,103.016,914.263,106.235
		c6.439,3.219,1.073,519.012,10.373,524.736c9.3,5.723,54.369,10.015,57.946-1.431c3.577-11.446-13.592-1754.126-17.885-1771.295
		c-4.292-17.169-60.092-16.096-66.531-16.096c-6.438,0-871.34,226.42-886.363,233.931c-15.023,7.512,1.073,877.778,5.365,888.509
		c4.292,10.731,858.463,120.185,873.486,104.089c15.023-16.096-21.819-1186.109-1.073-1195.409
		c20.746-9.3,55.085,1746.257,50.077,1751.264c-5.008,5.008-637.409-98.008-639.913-99.081
		c-2.504-1.073-10.015-57.946,14.665-62.596c24.681-4.65,53.296,49.719,59.377,54.727c6.081,5.008,174.554,36.127,185.285,24.681
		c10.731-11.446-79.408-209.25-90.854-213.9c-11.446-4.65-317.452,22.534-340.524,34.338
		c-23.071,11.804-120.721,494.153-130.379,508.103s-66.531-9.658-65.994-17.169s102.479-391.674,113.746-377.187
		c11.267,14.487-134.85,487.893-128.412,498.624c6.439,10.731,176.7-38.631,312.624-17.169
		c135.923,21.462,556.005,100.806,724.686,77.262c117.77-16.438,182.87-221.754,182.155-263.246
		c-0.715-41.492-45.069-181.887-37.558-187.252c7.512-5.365,514.72-4.471,509.712,14.844s-486.105-6.438-487.178,3.219
		c-1.073,9.658,124.477,375.935,130.2,427.443s-31.477,124.477-36.485,93c-5.008-31.477,40.777-66.531,98.723-56.515
		c57.946,10.015,595.201,48.646,608.078,36.842c12.877-11.804,6.438-64.027,5.723-70.466
		c-0.715-6.438-112.315-198.162-108.023-175.27c4.292,22.893,79.229,184.57,74.4,187.789c-4.829,3.219-580.178-25.396-590.909-32.55
		c-10.731-7.154-125.193-364.131-123.046-366.993c2.146-2.861,62.06-1.252,69.571,3.041
		c7.512,4.292,135.745,329.972,131.452,335.874c-4.292,5.902-69.214,1.073-54.727-10.731
		c14.487-11.804,504.884,40.777,511.322,34.339c6.438-6.439-54.19-143.256-43.102-160.068c11.089-16.812,72.254-11.446,68.32-8.585
		s-105.52-18.958-156.312,25.396c-50.792,44.354-86.562,76.188-90.138,73.685c-3.577-2.504-10.015-55.084,25.396-103.373
		s189.219-90.854,166.685-81.554c-22.535,9.3-109.454-10.015-162.035,16.096c-52.581,26.111-42.923,130.916-59.019,140.216
		c-16.096,9.3-43.639-94.789-36.127-143.435c7.511-48.646,91.212-108.023,108.023-112.673s110.169-3.935,84.416,5.723
		c-25.754,9.658-148.8,52.938-166.685,94.431c-17.885,41.492-20.031,121.615-51.865,126.266
		c-31.835,4.65-7.154-206.031,69.035-243.589c76.188-37.558,299.031-8.942,316.2,1.073s210.323,115.177,485.747,145.939
		c275.423,30.761,825.198,11.446,929.823,32.371c104.625,20.925,325.143,183.497,376.651,305.827
		c51.508,122.331,114.283,16.096,141.646-93.358c27.363-109.454-12.877-260.758-127.16-320.314
		c-114.283-59.556-234.289-73.327-317.989-53.296s-75.831,116.608-63.669,108.739c12.162-7.869-27.185-737.921,54.906-929.465
		s321.924-333.191,482.885-96.577c160.962,236.614,4.829,1141.219,14.487,1094.54c9.658-46.679-86.919-207.641-329.972-241.443
		s-281.683,175.448-296.707,186.179c-15.023,10.731-89.065-171.693-131.988-99.796c-42.923,71.896-245.02,66.531-242.158,66.531
		s45.069-125.908,26.469-163.108c-18.6-37.2-83.7,39.346-39.346,30.762c44.354-8.585,40.777-158.816,50.792-224.631
		c10.016-65.816,70.108-39.346,59.377-92.285c-10.731-52.938-128.77-233.216-77.977-322.639
		c50.792-89.423,143.792-105.877,150.231-170.977c6.438-65.1-50.077-213.185-12.877-260.4s77.441-54.369,61.881-51.687
		c-15.56,2.683-144.865,293.487-133.062,292.414c11.804-1.073,228.566-35.411,240.37-52.581
		c11.804-17.169,67.604-312.266,106.235-339.093c38.631-26.827,430.305,212.469,401.332,204.958s-127.338-86.919-265.408,54.012
		c-138.069,140.931-148.8,258.97-139.5,185.285c9.3-73.685,150.231-291.162,94.431-260.4
		c-55.8,30.762-125.908,123.762-98.008,61.523c27.9-62.239,126.624-158.816,98.724-175.269c-27.9-16.454-75.116-5.723-75.116-23.608
		s-91.569-179.562-98.008-173.839s-113.746,227.493-104.446,201.739s80.839-276.139,86.204-255.75
		c5.365,20.388-77.619,27.9-82.627,10.373c-5.008-17.527,9.658-334.443,22.535-353.758c12.877-19.315,51.15-11.089,52.581-1.789
		c1.431,9.3-8.585,285.439,4.292,312.624c12.877,27.185,86.383-20.567,75.115-59.198c-11.267-38.631-59.556-28.437-46.142-12.877
		c13.413,15.56,63.312-42.923,70.287-4.829c6.975,38.094-35.948,118.575-88.529,150.231
		c-52.581,31.656-217.298,74.042-222.664,91.212c-5.365,17.169,1.073,34.875-5.902,38.631c-6.975,3.756-74.579,42.923-99.796,12.34
		c-25.217-30.583-1.61-45.606,3.219-47.215s95.772-15.023,109.991,7.243c14.218,22.266,144.865-41.045,151.036-46.679
		c6.17-5.634,25.486-74.311,25.486-151.573c0-77.262,5.902-272.562,43.46-288.122c37.558-15.56,56.873,26.29,60.092,58.483
		c3.219,32.192-4.292,157.206-5.902,143.793c-1.61-13.414-13.414-125.014-20.925-147.548c-7.511-22.535-32.729-7.512-26.29-3.219
		c6.438,4.292-11.804-242.516-32.193-267.197s-67.604,56.873-47.215,78.335s71.896-48.289-24.681-109.454
		s-177.416-30.404-150.231-31.835s-28.615,60.092,16.454,167.4s108.739,313.339,113.031,281.862
		c4.292-31.477-13.593-248.954,5.008-261.116c18.6-12.162,53.654,64.385,40.777,52.223
		c-12.877-12.161-8.585-132.346-101.585-177.416c-93-45.069-121.616,12.877-155.954,10.731c-34.339-2.146-42.208-55.8-71.539-28.615
		c-29.331,27.185-6.439,55.8-57.231,44.354c-50.792-11.446-129.485-22.892-236.793,20.746
		c-107.308,43.639-76.546,268.985-89.423,247.524c-12.877-21.462-26.469-114.462-38.631-66.531
		c-12.162,47.931-10.731,93-20.031,51.508c-9.3-41.492,0.715-93.715-17.169-72.969c-17.885,20.746-31.477,54.369-35.054,31.477
		c-3.577-22.892-35.769-211.754,85.846-336.231c121.615-124.477,358.408-192.439,539.401-125.908s206.925,194.406,209.608,185.821
		c2.683-8.585-75.115-155.596-201.202-101.406c-126.087,54.19-60.092,102.479-154.523,89.602
		c-94.431-12.877-217.298-86.383-210.323-54.19c6.975,32.192,141.11,40.777,72.969,63.312c-68.14,22.535-201.202,0-209.25,30.583
		c-8.048,30.583,28.437,36.485,16.633,43.996c-11.804,7.512-67.604,68.677-62.239,100.333
		c5.365,31.656,47.752,190.471,52.044,316.022c4.292,125.55,121.437,393.999,278.106,425.476
		c156.669,31.477,303.323-123.762,290.447-127.339s-120.542,140.752-188.683,182.066c-68.14,41.313-124.477-25.217-105.162-13.95
		c19.315,11.267,86.383,202.275,128.77,214.079c42.386,11.804,123.404-81.554,86.919-61.702
		c-36.485,19.852-99.26,116.429-115.893,111.6s-195.3-124.477-195.3-151.304s62.239-177.058,58.483-145.939
		s-163.466,96.935-253.604,256.466s-228.923,286.154-227.493,328.362c1.431,42.208,38.631,99.439,11.446,257.539
		c-27.185,158.1,2.862,178.846-27.9,223.916c-30.761,45.069-265.408,106.592-282.577-162.393s93.716-771.901,100.869-814.109
		s12.34-240.548,63.312-313.518c50.971-72.969,106.771-92.821,116.429-118.575s55.8-113.21,79.408-124.477
		c23.608-11.267,70.287,6.17,77.262-8.853c6.975-15.023,9.389-98.723,5.365-102.747c-4.024-4.024-32.729,62.775-24.144,81.286
		c8.584,18.511,101.942,55.532,106.503,87.993c4.56,32.461-26.827,40.24-47.752,35.948c-20.925-4.292-62.775-34.607-93.894-23.339
		s-66.799,63.848-57.41,54.727c9.389-9.121,41.85-19.047,61.165,24.144c19.316,43.191,47.126,94.073,43.549,133.42
		c-3.577,39.346,3.219,81.554-31.835,79.05c-35.054-2.504-28.615-79.766-42.208-106.235
		c-13.592-26.469-87.635-36.485-108.023-28.973c-20.389,7.511,74.042,14.665,101.585,63.669
		c27.542,49.004,20.031,100.869-2.504,101.227c-22.535,0.358-20.031-54.369-71.539-83.342
		c-51.508-28.973-111.242,47.931-80.481,29.689c30.762-18.242,88.35-21.819,86.919,3.577
		c-1.431,25.396,28.615,191.723,32.192,173.123c3.577-18.6-19.136-132.883,4.471-119.469s37.558,27.364,72.969,8.048
		c35.412-19.315,64.385-85.31,63.312-108.917c-1.073-23.608-30.583-143.793-11.267-169.547s7.511-37.558,16.812,8.942
		c9.3,46.5,34.696,72.254,65.458,94.789s79.05,31.477,55.085,20.389c-23.965-11.089-118.754,70.465-104.804,60.092
		c13.95-10.373,71.181-49.004,114.819-26.112c43.639,22.892,18.242,49.362-14.308,66.889s-66.531,64.027-133.777,136.996
		c-67.246,72.969-100.869,72.254-119.469,117.323c-18.6,45.069-63.848,292.235-50.971,477.341
		c12.877,185.106,2.683,441.572,28.437,456.595c25.754,15.023,145.939-57.946,167.4-131.989
		c21.462-74.042-138.427-346.604-118.039-262.904c20.388,83.7,123.404,267.197,181.35,232.858
		c57.946-34.338,186.716-170.619,196.373-227.493c9.658-56.873-20.388-252.173-22.535-215.689
		c-2.146,36.485,155.954,766.536,174.554,782.99s397.039-7.154,553.709,27.9c156.669,35.054,354.831,286.87,367.708,307.616
		c12.877,20.746,5.008,156.848-162.392,172.945c-167.4,16.096-1232.968-275.245-1329.545-292.95
		c-96.577-17.706-139.858,11.983-229.281-62.417s-151.662-85.131-143.792-85.131c7.869,0-2.146,66.531,14.308,71.539
		s90.139-12.877,72.969-8.585c-17.169,4.292,105.162,150.231,165.97,158.816c60.808,8.585,268.27-38.631,213.185,15.739
		s-230.354,60.093-85.846,72.969c144.508,12.877,872.771,159.531,897.809,136.639c25.039-22.892,7.154-62.954,12.162-44.354
		c5.008,18.6,120.9,135.923,144.508,138.07c23.608,2.146,884.038,9.121,901.744-40.777
		c17.706-49.898-215.689-1179.85-222.127-1129.952s122.331,1096.15,304.218,1104.198s129.306-163.108,294.56,12.877
		s118.039-57.946,279-32.192"/>
</g>
</svg>
