<svg id="line" height="512" viewBox="0 0 64 64" width="512" fill="white" xmlns="http://www.w3.org/2000/svg"><path d="m61.719 43.08-7.712-7.98.725-.75a1 1 0 0 0 0-1.39l-5.383-5.56-.642-3.32a1.006 1.006 0 0 0 -.263-.506l-8.384-8.674a2.956 2.956 0 0 0 -4.847.933 2.986 2.986 0 0 0 -3.578.513 3.042 3.042 0 0 0 -.564.819l-.094-.1a3 3 0 0 0 -4.233 0 3.112 3.112 0 0 0 -.452 3.675 2.977 2.977 0 0 0 -.945.659 3.108 3.108 0 0 0 0 4.282l5.02 5.19a15.064 15.064 0 0 0 -3.745-.056 3.674 3.674 0 0 0 -2.58 4.167 3.209 3.209 0 0 0 3.075 2.818l11.059 1.157.918.949q-1.139.661-2.472 1.311a86.337 86.337 0 0 1 -11.822 4.506c-.483-2.471-2.006-8.344-6.092-12.43a47.544 47.544 0 0 1 -7.357-8.893c2.649-1.463 10.471-6.027 14.417-10.759 4.008-4.81 12.251-7.671 14.757-8.455 1.16 1.952 4.661 7.266 9.159 8.762 4.472 1.491 7.857 7.4 8.991 9.616-1.12.6-3.183 1.752-5.456 3.251a1 1 0 0 0 1.1 1.67 67.434 67.434 0 0 1 6.128-3.591 1 1 0 0 0 .465-1.3c-.171-.384-4.252-9.428-10.6-11.543-4.662-1.551-8.393-8.451-8.43-8.522a1 1 0 0 0 -1.145-.494c-.462.126-11.363 3.154-16.505 9.324-4.438 5.323-14.6 10.7-14.7 10.756a1 1 0 0 0 -.454 1.277c.063.149 1.631 3.734 8.213 10.315 4.691 4.693 5.709 12.341 5.717 12.418a1 1 0 0 0 .992.875 1.018 1.018 0 0 0 .268-.036 89.058 89.058 0 0 0 13.232-4.953c1.1-.533 2.112-1.08 3.028-1.631l2.989 3.091a1 1 0 0 0 1.438 0l.678-.7 7.661 7.929a1 1 0 0 0 1.438 0l6.987-7.224a1 1 0 0 0 0-1.396zm-22.358-5.78a1 1 0 0 0 -.615-.3l-11.5-1.2a1.251 1.251 0 0 1 -1.224-1.111 1.73 1.73 0 0 1 1.05-1.919 3.471 3.471 0 0 1 .715-.052 43.92 43.92 0 0 1 5.123.486 1.009 1.009 0 0 0 1.035-.532 1 1 0 0 0 -.171-1.152l-6.989-7.22a1.089 1.089 0 0 1 0-1.5.951.951 0 0 1 1.337-.021l7.007 7.246a1 1 0 1 0 1.437-1.391l-6.986-7.229-.035-.035-1.362-1.408a1.09 1.09 0 0 1 0-1.5.953.953 0 0 1 1.358 0l2.059 2.126.038.041 6.277 6.49.011.012a1 1 0 0 0 1.438-1.391l-6.314-6.526a1.087 1.087 0 0 1 .023-1.475.948.948 0 0 1 1.357 0l6.276 6.49.012.012a1 1 0 0 0 1.438-1.39l-4.891-5.058a1.086 1.086 0 0 1 0-1.5.952.952 0 0 1 1.357 0l8.178 8.457.642 3.32a1 1 0 0 0 .263.506l4.917 5.084-1.762 1.822-5.95 6.153-.677.7zm14.652 12.262-6.993-7.232 5.536-5.724.06-.062 6.993 7.231z"/><path d="m15 35a1 1 0 0 0 -1-1 12.013 12.013 0 0 0 -12 12 1 1 0 0 0 2 0 10.011 10.011 0 0 1 10-10 1 1 0 0 0 1-1z"/><path d="m15 41a1 1 0 0 0 0-2 7.008 7.008 0 0 0 -7 7 1 1 0 0 0 2 0 5.006 5.006 0 0 1 5-5z"/><path d="m14 7a2 2 0 0 1 2 2 1 1 0 0 0 2 0 2 2 0 0 1 2-2 1 1 0 0 0 0-2 2 2 0 0 1 -2-2 1 1 0 0 0 -2 0 2 2 0 0 1 -2 2 1 1 0 0 0 0 2zm3-1.357a3.759 3.759 0 0 0 .357.357 3.759 3.759 0 0 0 -.357.357 3.759 3.759 0 0 0 -.357-.357 3.759 3.759 0 0 0 .357-.357z"/><path d="m5 16a2 2 0 0 1 2 2 1 1 0 0 0 2 0 2 2 0 0 1 2-2 1 1 0 0 0 0-2 2 2 0 0 1 -2-2 1 1 0 0 0 -2 0 2 2 0 0 1 -2 2 1 1 0 0 0 0 2zm3-1.357a3.759 3.759 0 0 0 .357.357 3.759 3.759 0 0 0 -.357.357 3.759 3.759 0 0 0 -.357-.357 3.759 3.759 0 0 0 .357-.357z"/><path d="m17 52a2 2 0 0 1 -2-2 1 1 0 0 0 -2 0 2 2 0 0 1 -2 2 1 1 0 0 0 0 2 2 2 0 0 1 2 2 1 1 0 0 0 2 0 2 2 0 0 1 2-2 1 1 0 0 0 0-2zm-3 1.357a3.759 3.759 0 0 0 -.357-.357 3.759 3.759 0 0 0 .357-.357 3.759 3.759 0 0 0 .357.357 3.759 3.759 0 0 0 -.357.357z"/><path d="m31 57a2 2 0 0 1 -2-2 1 1 0 0 0 -2 0 2 2 0 0 1 -2 2 1 1 0 0 0 0 2 2 2 0 0 1 2 2 1 1 0 0 0 2 0 2 2 0 0 1 2-2 1 1 0 0 0 0-2zm-3 1.357a3.759 3.759 0 0 0 -.357-.357 3.759 3.759 0 0 0 .357-.357 3.759 3.759 0 0 0 .357.357 3.759 3.759 0 0 0 -.357.357z"/></svg>