<svg fill="white" id="Layer_1" enable-background="new 0 0 100 100" viewBox="0 0 100 100" xmlns="http://www.w3.org/2000/svg"><g><path d="m95.3284531 5.5813241s0 0-.0100098 0c-44.0632324.2457886-54.689209-1.4447632-91.5400383-.0299683-.6300049.0299683-1.1300049.5-1.1699219 1.0999756-1.8186034 32.0707397 1.7204592 33.7938843.0599365 79.539978-.0142822.4559326.2352295.9164429.7559814 1.1261597-.072998.1710815-.8476563 1.9754028-.8759766 2.083313-1.5971678 5.9905396 6.4020996 7.7184448 8.8984375 2.5869141.7340088-1.5097046 1.4467773-3.0395508 2.1479492-4.576355h81.7436523c.6298828 0 1.1599121-.4799805 1.1999512-1.0900269 1.5570068-20.5425415 2.1268311-42.3438683-.0100098-79.6399536-.0300299-.6200561-.5600592-1.1000366-1.1999517-1.1000366zm-84.7810049 85.9688697c-1.9428711 3.9972534-8.291626 2.9708252-7.0410156-1.8613281 5.7607421-14.0166016 11.6343993-22.6257325 12.493164-24.2285157.9614248-1.7872276 1.2250967-1.6434898 2.3832998-1.050293.2407227.1225586.4746094.2407227.6875.3212891.4138184.1573486 1.0581055.2896118 1.3330078.4873047.78479.56427.4008789 1.135376.0185547 2.2626953-2.7529297 8.1369629-6.0273428 16.1565552-9.8745107 24.0688477zm-6.4899903-37.0035362c.3693848.3926392.4897461.2731323 3.6708984 1.4592285v22.0701866c-1.3771973 2.7221069-2.6888428 5.5018921-3.9095461 8.3092041-.0358887-.0122681-.0753174-.0188599-.1004639-.0439453-.1916503-.1916504.6706546-13.1152344.3391116-31.7946739zm17.2246084 10.1193199c1.2929688-1.2073936 2.0461426-1.7857018 3.2567139-2.65588 16.6192627 5.9088707 15.7252197 5.683651 16.1229248 5.683651.4199219-.0004883.8266602-.2167969 1.0546875-.5917969 1.4597168-2.4020386 3.1689453-4.6349449 5.0791016-6.6538048.6071777-.6425781.359375-1.6939087-.4682617-1.9970703-11.3566895-4.1675415-22.765625-7.8254395-34.1464844-10.9838867-.3320313-.0927734-.6743164-.0458984-.9648438.1298828-.8426514.5078735-1.6733398 1.0449219-2.4875488 1.6054688v-37.7512227c0-.1900024.1600342-.3499756.3500977-.3499756h39.3898926c.2000732 0 .3601074.1599731.3601074.3499756v67.8200073c0 .2000122-.1600342.3599854-.3601074.3599854h-31.5083008c2.7307129-6.6942749 4.2143555-11.3120728 4.550293-12.2236938.3098144-.8407612.6730956-1.8662129-.2282716-2.7416401zm-4.4036865-8.6646691 13.5799561 4.8000488-.2613525 2.1682129-15.0255117-5.3666992zm-3.70996-5.4199829c-.2600098-.0899658-.4000244-.3800049-.3099365-.6400146.0898438-.2599487.369873-.3999634.6298828-.3099976l27.8800049 9.5400391c.2600098.0899658.4000244.3800049.3100586.6399536-.0933838.2803955-.397583.40271-.6300049.3100586zm10.2435294 11.0263062c-.925293.6798096-1.6704102 1.2437134-3.001709 2.5081749-.7945557-.2975426-.6539307-.1274376-1.5722656-.5963707-.137207-.0701294-.2762451-.138916-.4157715-.2047119.7294922-1.1451416 1.5540771-1.9481201 2.5180664-2.5899048zm-3.6108399-1.2896729c-.9165039.7263184-1.6806641 1.536499-2.3787842 2.697937-1.1949463-.0777588-1.8602285 1.1483727-2.3030996 1.9708214-.6008301 1.1150513-2.7209473 4.1550293-6.3908691 11.1646118v-19.7882652zm75.7473145 25.9233971c-.038208.3435669 2.901123.0870972-81.498291.1699829.8623047-1.9163208 1.6933594-3.8456421 2.4941406-5.7800293h31.9240723c.75 0 1.3601074-.6099854 1.3601074-1.3599854v-67.8200054c0-.75-.6101074-1.3499756-1.3601074-1.3499756h-39.3898917c-.7399902 0-1.3500977.5999756-1.3500977 1.3499756v38.4842529c-1.0472412.7607422-1.8322754 1.2983398-3.5910645 2.8485107-.0441895.0390015-.076416.0862427-.1140137.1299438-.2561036-11.7358378-1.6290284-24.8610838-.414795-46.2026971.0098877-.0800171.0998535-.1500244.2099609-.1599732 36.575927-1.4139404 47.3178704.27594 91.5100091.0299683.0799561.0300293.1999512.0700073.2099609.1600342 2.1337891 37.869142 1.5410156 59.1616797.0100098 79.4999976z"/><path d="m90.3164902 10.128809h-35.3105469c-.7480469 0-1.3569336.6088867-1.3569336 1.3574219v67.3144531c0 .7485352.6088867 1.3574219 1.3569336 1.3574219h35.3105469c.7480469 0 1.3569336-.6088867 1.3569336-1.3574219v-67.3144531c0-.7485352-.6088868-1.3574219-1.3569336-1.3574219zm.3569336 68.6718731c0 .1972656-.1601563.3574219-.3569336.3574219h-35.3105469c-.1967773 0-.3569336-.1601563-.3569336-.3574219v-67.3144512c0-.1972656.1601563-.3574219.3569336-.3574219h35.3105469c.1967773 0 .3569336.1601563.3569336.3574219z"/><path d="m77.9219589 17.5047855c-.2050781-.1826172-.5205078-.1674805-.706543.0375977l-14.8925781 16.567873c-.1845703.2055664-.1674805.5214844.0375977.706543.2058754.183815.5202599.1679573.706543-.0375977l14.8925781-16.567873c.1845703-.2055664.1674804-.5214844-.0375977-.706543z"/><path d="m70.652916 35.0667992c-.1933594.1972656-.1894531.5141602.0078125.7070313.1969452.1929855.5143127.1897202.7070313-.0078125l7.2451172-7.4091816c.1933594-.1972656.1894531-.5141602-.0078125-.7070313-.1967773-.1928711-.5141602-.1884766-.7070313.0078125z"/><path d="m82.1524277 54.556057c-.2050781-.1826172-.5205078-.1665039-.706543.0375977l-14.8925781 16.5678672c-.1845703.2055664-.1674805.5214844.0375977.706543.2058105.1837769.5209961.1680298.706543-.0375977l14.8925781-16.5678673c.1845702-.2055664.1674804-.5214843-.0375977-.7065429z"/><path d="m81.9839706 63.0907249-8.1503906 8.2416954c-.1943359.1962891-.1923828.5126953.0039063.7070313.1970215.1940918.5134277.1925659.7070313-.0039063l8.1503906-8.2416954c.1943359-.1962891.1923828-.5126953-.0039063-.7070313-.1967774-.1933593-.5131836-.1923827-.7070313.0039063z"/><path d="m15.2559443 69.5326157c-.2504883-.1196289-.5478516-.0146484-.6669922.234375l-8.2299805 17.1748046c-.1196289.2490234-.0146484.5478516.2348633.6669922.2436523.1184082.5456543.0175781.6665039-.234375l8.2299805-17.1748047c.1196289-.2490234.0146484-.5478515-.234375-.6669921z"/><path d="m28.9165878 33.1537132c-1.0507813-.453125-2.0151367-1.1811543-2.7885742-2.1044941-.7456055-.890625-1.3134766-1.9418945-1.6870117-3.1245117-.0698242-.2216797-.2773438-.359375-.5161133-.3481445-.2319336.0185547-.4204102.1943359-.4550781.4248047-.090332.6035156-.3212891 1.5004883-.9111328 2.3452148-1.0419922 1.4926758-2.512207 1.805666-2.9384766 1.8657246-.2363281.0336914-.4160156.2294922-.4287109.4677734-.0131836.2387695.144043.453125.3754883.5117188.8759766.2231445 2.144043.7651367 3.2114258 2.0776367.5722656.703125 1.0117188 1.5356445 1.3061523 2.4736328.065918.2104492.2612305.3500977.4765625.3500977.2660809 0 .4875526-.2085953.5-.4770508.0219727-.480957.1479492-1.4091797.7456055-2.2290039 1.0869141-1.4902344 2.7753906-1.2885742 2.847168-1.2788086.2397461.0317383.4804688-.1225586.5463867-.362793.0664062-.2407227-.0546876-.4931641-.2836915-.5917969zm-4.5161133 2.7607422c-.7212219-1.347435-1.7905445-2.4640274-3.1713867-3.1606445 1.299675-.6162109 2.2764206-1.7167702 2.824707-3.095705.6932659 1.4378128 1.7194862 2.7077656 3.0605469 3.6333027-.6953125.2109374-2.2412681 1.3644561-2.7138672 2.6230468z"/><path d="m38.1802597 42.6048851c.1352539-.2084961.0966797-.4853516-.090332-.6489258-1.3371696-1.1675568-1.9430008-2.9088402-1.925293-4.6489258.0055389-.528389-.7102432-.7008362-.9472656-.2290039-.7742233 1.5484428-2.256279 2.2855835-3.5957031 2.0566406-.2299805-.0351563-.4658203.0917969-.5507813.3154297-.0849609.2226563-.0004883.4746094.2016602.6015625.5551758.3476563 1.3095703 1.0029297 1.7519531 2.1494141.237793.6181641.3540039 1.2954102.3447266 2.0131836-.003418.2789307.2216797.5063477.5004883.5063477.2041016 0 .3920898-.1254883.4667969-.3227539.1235352-.324707.418457-.9335938 1.0097656-1.3623047 1.0585938-.7666016 2.1582031-.2700195 2.2041016-.2495117.2270507.1030273.4941405.0268554.6298827-.1811524zm-3.4208984-.3789062c-.206543.1499023-.3857422.3144531-.5410156.4838867-.065918-.2983398-.152832-.5878906-.2612305-.8681641-.2827148-.7348633-.6723633-1.3056641-1.0771484-1.7441406.9349518-.1797333 1.7578621-.6702194 2.3964844-1.3613281.1796494 1.0494156.5695572 2.0276718 1.1699219 2.8764648-.5126954.0307617-1.1030275.1894531-1.6870118.6132813z"/><path d="m35.548912 24.2445316c1.2986374.8155022 2.1207657 2.2996616 2.0966797 4.1630859-.0033684.2789669.2217522.5063477.5004883.5063477.2041016 0 .3920898-.1254883.4667969-.3227539.1235352-.324707.418457-.9331055 1.0097656-1.3623047 1.0600586-.7700195 2.1567383-.2709961 2.203125-.2495117.2250977.105957.4941406.0283203.6303711-.1801758.1357422-.2084961.0976563-.4853516-.0898438-.6494141-1.3093071-1.1452618-1.9434662-2.8635921-1.925293-4.6494141.0055275-.5272141-.7099152-.7025928-.9472656-.2290039-.7668533 1.535593-2.2403526 2.2857742-3.5957031 2.0566406-.2299805-.0366211-.4658203.0922852-.5507813.3149414-.0849608.2231447-.0004882.4750978.2016602.6015626zm4.0043946-1.3144531c.1730614 1.0155334.5523109 2.0036926 1.1689453 2.8754883-.8802109.0537033-1.6501846.4676495-2.2275391 1.0976563-.217659-.9835052-.6636047-1.8809052-1.3388672-2.6123047.9434472-.1803513 1.7616921-.6764336 2.397461-1.3608399z"/><path d="m19.7159042 22.3929691c-.2788086-.0380859-.5288086.1445313-.5717773.4165039-1.1069889 7.0674133-4.4247618 13.767561-9.7089834 19.0507832-.1953125.1953125-.1953125.5117188 0 .7070313s.5117188.1953125.7070313 0c2.6542969-2.6533203 4.8613281-5.6884766 6.5595694-9.0209961s2.8525391-6.8930683 3.4306641-10.5815449c.0424803-.2729492-.1440431-.5288086-.4165041-.5717774z"/><path d="m47.2134628 32.8451195c-.2724609-.0390625-.5288086.1445313-.5712891.4169922-.5605469 3.5834961-1.6821289 7.0429688-3.3330078 10.2822266-1.6503906 3.2382813-3.7954102 6.1879883-6.3759766 8.7680664-.1953125.1953125-.1953125.5117188 0 .7070313s.5117188.1953125.7070313 0c2.6547852-2.6542969 4.8618164-5.6894531 6.5595703-9.0209961 1.6992188-3.3334961 2.8535156-6.8935547 3.4306641-10.5820313.0424805-.272461-.144043-.5283204-.4169922-.5712891z"/></g></svg>