<svg id="Layer_3" enable-background="new 0 0 64 64" height="512" fill="white" viewBox="0 0 64 64" width="512" xmlns="http://www.w3.org/2000/svg"><path d="m59.5 56c-1.345 0-2.609-.523-3.561-1.475l-4.525-4.525 1.293-1.293c.391-.391.391-1.023 0-1.414l-12.793-12.793.793-.793c.391-.391.391-1.023 0-1.414l-3.744-3.744c1.329-2.639 2.037-5.575 2.037-8.549 0-10.477-8.523-19-19-19s-19 8.523-19 19 8.523 19 19 19c2.974 0 5.91-.708 8.549-2.037l3.744 3.744c.195.195.451.293.707.293s.512-.098.707-.293l.793-.793 12.793 12.793c.195.195.451.293.707.293s.512-.098.707-.293l1.293-1.293 4.525 4.525c1.329 1.33 3.096 2.061 4.975 2.061.827 0 1.5.673 1.5 1.5s-.673 1.5-1.5 1.5h-22.5c-2.206 0-4-1.794-4-4 0-3.309-2.691-6-6-6h-15v2h15c2.206 0 4 1.794 4 4 0 3.309 2.691 6 6 6h22.5c1.93 0 3.5-1.57 3.5-3.5s-1.57-3.5-3.5-3.5zm-39.5-19c-9.374 0-17-7.626-17-17s7.626-17 17-17 17 7.626 17 17c0 2.439-.532 4.849-1.535 7.051l-4.074-4.074c1.042-1.258 1.609-2.824 1.609-4.477 0-1.879-.731-3.646-2.061-4.975l-5.232-5.232c-.391-.391-1.023-.391-1.414 0l-.723.723c-1.429-.654-2.989-1.016-4.57-1.016-6.065 0-11 4.935-11 11 0 1.582.362 3.142 1.015 4.571l-.722.722c-.391.391-.391 1.023 0 1.414l5.232 5.232c1.329 1.33 3.096 2.061 4.975 2.061 1.653 0 3.219-.567 4.477-1.609l4.074 4.074c-2.202 1.003-4.612 1.535-7.051 1.535zm-10-18c0-4.963 4.037-9 9-9 1.041 0 2.071.192 3.044.542l-1.544 1.544-.793-.793c-.391-.391-1.023-.391-1.414 0l-7 7c-.391.391-.391 1.023 0 1.414l.793.793-1.544 1.544c-.349-.972-.542-2.002-.542-3.044zm3.5 2.914 8.04 8.04c-.873.667-1.923 1.046-3.04 1.046-1.345 0-2.609-.523-3.561-1.475l-4.525-4.525zm-.086-2.914 5.586-5.586 9.586 9.586-5.586 5.586zm8.5-5.5 3.086-3.086 4.525 4.525c.952.952 1.475 2.216 1.475 3.561 0 1.117-.379 2.167-1.046 3.04zm2.5 16.5 5.586-5.586 8.586 8.586-5.586 5.586zm23.586 20.586-12.086-12.086 2.586-2.586 12.086 12.086z"/><path d="m52 8c2.206 0 4 1.794 4 4 0 .553.447 1 1 1s1-.447 1-1c0-2.206 1.794-4 4-4 .553 0 1-.447 1-1s-.447-1-1-1c-2.206 0-4-1.794-4-4 0-.553-.447-1-1-1s-1 .447-1 1c0 2.206-1.794 4-4 4-.553 0-1 .447-1 1s.447 1 1 1zm5-2.687c.444.668 1.019 1.243 1.687 1.687-.668.444-1.243 1.019-1.687 1.687-.444-.668-1.019-1.243-1.687-1.687.668-.444 1.243-1.019 1.687-1.687z"/><path d="m44 28c2.206 0 4 1.794 4 4 0 .553.447 1 1 1s1-.447 1-1c0-2.206 1.794-4 4-4 .553 0 1-.447 1-1s-.447-1-1-1c-2.206 0-4-1.794-4-4 0-.553-.447-1-1-1s-1 .447-1 1c0 2.206-1.794 4-4 4-.553 0-1 .447-1 1s.447 1 1 1zm5-2.687c.444.668 1.019 1.242 1.687 1.687-.668.444-1.242 1.019-1.687 1.687-.444-.668-1.019-1.242-1.687-1.687.668-.444 1.243-1.019 1.687-1.687z"/><path d="m13 45c0-.553-.447-1-1-1-2.206 0-4-1.794-4-4 0-.553-.447-1-1-1s-1 .447-1 1c0 2.206-1.794 4-4 4-.553 0-1 .447-1 1s.447 1 1 1c2.206 0 4 1.794 4 4 0 .553.447 1 1 1s1-.447 1-1c0-2.206 1.794-4 4-4 .553 0 1-.447 1-1zm-6 1.687c-.444-.668-1.019-1.243-1.687-1.687.668-.444 1.243-1.019 1.687-1.687.444.668 1.019 1.243 1.687 1.687-.668.444-1.243 1.019-1.687 1.687z"/></svg>